<?xml version="1.0" encoding="UTF-8" standalone="no"?>
<!-- Generator: Adobe Illustrator 16.0.0, SVG Export Plug-In . SVG Version: 6.00 Build 0)  -->

<svg
   xmlns:dc="http://purl.org/dc/elements/1.1/"
   xmlns:cc="http://creativecommons.org/ns#"
   xmlns:rdf="http://www.w3.org/1999/02/22-rdf-syntax-ns#"
   xmlns:svg="http://www.w3.org/2000/svg"
   xmlns="http://www.w3.org/2000/svg"
   xmlns:sodipodi="http://sodipodi.sourceforge.net/DTD/sodipodi-0.dtd"
   xmlns:inkscape="http://www.inkscape.org/namespaces/inkscape"
   version="1.1"
   id="Capa_1"
   x="0px"
   y="0px"
   width="511.634px"
   height="511.634px"
   viewBox="0 0 511.634 511.634"
   style="enable-background:new 0 0 511.634 511.634;"
   xml:space="preserve"
   sodipodi:docname="20.svg"
   inkscape:version="0.92.1 15371"><metadata
     id="metadata3798"><rdf:RDF><cc:Work
         rdf:about=""><dc:format>image/svg+xml</dc:format><dc:type
           rdf:resource="http://purl.org/dc/dcmitype/StillImage" /><dc:title /></cc:Work></rdf:RDF></metadata><defs
     id="defs3796" /><sodipodi:namedview
     pagecolor="#ffffff"
     bordercolor="#666666"
     borderopacity="1"
     objecttolerance="10"
     gridtolerance="10"
     guidetolerance="10"
     inkscape:pageopacity="0"
     inkscape:pageshadow="2"
     inkscape:window-width="1851"
     inkscape:window-height="1099"
     id="namedview3794"
     showgrid="false"
     inkscape:zoom="0.48"
     inkscape:cx="-161.76062"
     inkscape:cy="234.10973"
     inkscape:window-x="418"
     inkscape:window-y="131"
     inkscape:window-maximized="0"
     inkscape:current-layer="Capa_1" /><g
     id="g3761"><path
       id="path3759"
       d="m 482.513,83.942 c -7.225,-7.233 -15.797,-10.85 -25.694,-10.85 h -36.541 v -27.41 c 0,-12.56 -4.477,-23.315 -13.422,-32.261 C 397.906,4.475 387.157,0 374.591,0 h -18.268 c -12.565,0 -23.318,4.475 -32.264,13.422 -8.949,8.945 -13.422,19.701 -13.422,32.261 v 27.41 h -109.63 v -27.41 c 0,-12.56 -4.475,-23.315 -13.422,-32.261 C 178.64,4.475 167.886,0 155.321,0 H 137.05 C 124.488,0 113.733,4.475 104.786,13.422 95.841,22.367 91.365,33.123 91.365,45.683 v 27.41 H 54.823 c -9.9,0 -18.464,3.617 -25.697,10.85 -7.233,7.232 -10.85,15.8 -10.85,25.697 v 365.453 c 0,9.89 3.617,18.456 10.85,25.693 7.232,7.231 15.796,10.849 25.697,10.849 h 401.989 c 9.897,0 18.47,-3.617 25.694,-10.849 7.234,-7.234 10.852,-15.804 10.852,-25.693 V 109.639 c -10e-4,-9.9 -3.615,-18.464 -10.845,-25.697 z M 347.187,45.686 c 0,-2.667 0.849,-4.858 2.56,-6.567 1.711,-1.711 3.901,-2.568 6.57,-2.568 h 18.268 c 2.67,0 4.853,0.854 6.57,2.568 1.712,1.712 2.567,3.903 2.567,6.567 v 82.224 c 0,2.666 -0.855,4.853 -2.567,6.567 -1.718,1.709 -3.9,2.568 -6.57,2.568 h -18.268 c -2.669,0 -4.859,-0.855 -6.57,-2.568 -1.711,-1.715 -2.56,-3.901 -2.56,-6.567 z m -219.272,0 c 0,-2.667 0.855,-4.858 2.568,-6.567 1.714,-1.711 3.901,-2.568 6.567,-2.568 h 18.271 c 2.667,0 4.858,0.854 6.567,2.568 1.711,1.712 2.57,3.903 2.57,6.567 v 82.224 c 0,2.666 -0.855,4.856 -2.57,6.567 -1.713,1.709 -3.9,2.568 -6.567,2.568 H 137.05 c -2.666,0 -4.856,-0.855 -6.567,-2.568 -1.709,-1.715 -2.568,-3.901 -2.568,-6.567 z M 456.812,475.088 H 54.823 v -292.36 h 401.989 z"
       inkscape:connector-curvature="0" /></g><g
     id="g3763" /><g
     id="g3765" /><g
     id="g3767" /><g
     id="g3769" /><g
     id="g3771" /><g
     id="g3773" /><g
     id="g3775" /><g
     id="g3777" /><g
     id="g3779" /><g
     id="g3781" /><g
     id="g3783" /><g
     id="g3785" /><g
     id="g3787" /><g
     id="g3789" /><g
     id="g3791" /><g
     aria-label="20"
     style="font-style:normal;font-weight:normal;font-size:40px;line-height:1.25;font-family:sans-serif;letter-spacing:0px;word-spacing:0px;fill:#000000;fill-opacity:1;stroke:none"
     id="text3810"><path
       id="path5310"
       style="font-style:normal;font-variant:normal;font-weight:normal;font-stretch:normal;font-size:253.33332825px;font-family:Ubuntu;-inkscape-font-specification:Ubuntu"
       d="m 263.99477,315.39402 q 0,-44.07999 15.45333,-67.89333 15.70667,-23.81333 43.32,-23.81333 27.61333,0 43.06667,23.81333 15.70666,23.81334 15.70666,67.89333 0,44.08 -15.70666,67.89334 -15.45334,23.81333 -43.06667,23.81333 -27.61333,0 -43.32,-23.81333 -15.45333,-23.81334 -15.45333,-67.89334 z m 92.72,0 q 0,-14.43999 -1.77334,-27.35999 -1.52,-12.92 -5.57333,-22.54667 -3.8,-9.62667 -10.38667,-15.2 -6.58666,-5.82667 -16.21333,-5.82667 -9.62667,0 -16.21333,5.82667 -6.58667,5.57333 -10.64,15.2 -3.8,9.62667 -5.57334,22.54667 -1.52,12.92 -1.52,27.35999 0,14.44 1.52,27.36 1.77334,12.92 5.57334,22.54667 4.05333,9.62667 10.64,15.45333 6.58666,5.57334 16.21333,5.57334 9.62667,0 16.21333,-5.57334 6.58667,-5.82666 10.38667,-15.45333 4.05333,-9.62667 5.57333,-22.54667 1.77334,-12.92 1.77334,-27.36 z M 226.63998,272.58069 q 0,9.12 -3.8,17.73334 -3.54666,8.36 -9.62666,16.71999 -6.08,8.10667 -13.68,16.21334 -7.6,7.85333 -15.2,15.45333 -4.30667,4.30667 -10.13333,10.13333 -5.57334,5.82667 -10.64,12.16 -5.06667,6.33334 -8.61334,12.16 -3.29333,5.82667 -3.29333,10.13334 h 80.81333 v 20.01333 h -106.4 q -0.25333,-1.52 -0.25333,-3.04 0,-1.52 0,-2.78667 0,-11.90666 3.8,-22.04 4.05333,-10.38666 10.38667,-19.50666 6.33333,-9.12 14.18666,-17.22667 7.85334,-8.10667 15.45334,-15.70667 6.33333,-6.08 11.90666,-11.90666 5.82667,-6.08 10.13334,-11.90667 4.56,-6.08 7.09333,-12.41333 2.78667,-6.33333 2.78667,-13.42667 0,-7.6 -2.53334,-12.92 -2.28,-5.32 -6.33333,-8.86666 -4.05333,-3.54667 -9.62667,-5.06667 -5.32,-1.77333 -11.4,-1.77333 -7.34666,0 -13.42666,2.02666 -6.08,2.02667 -10.89334,4.81334 -4.81333,2.53333 -8.10666,5.57333 -3.29334,2.78667 -5.06667,4.30667 l -11.65333,-16.72 q 2.28,-2.53334 6.84,-6.08 4.56,-3.8 10.89333,-7.09334 6.33333,-3.29333 14.18667,-5.57333 7.85333,-2.28 16.97333,-2.28 27.61333,0 41.29333,12.92 13.93333,12.66667 13.93333,35.97333 z"
       inkscape:connector-curvature="0" /></g></svg>