<?xml version="1.0" encoding="UTF-8" standalone="no"?>
<!-- Generator: Adobe Illustrator 16.0.0, SVG Export Plug-In . SVG Version: 6.00 Build 0)  -->

<svg
   xmlns:dc="http://purl.org/dc/elements/1.1/"
   xmlns:cc="http://creativecommons.org/ns#"
   xmlns:rdf="http://www.w3.org/1999/02/22-rdf-syntax-ns#"
   xmlns:svg="http://www.w3.org/2000/svg"
   xmlns="http://www.w3.org/2000/svg"
   xmlns:sodipodi="http://sodipodi.sourceforge.net/DTD/sodipodi-0.dtd"
   xmlns:inkscape="http://www.inkscape.org/namespaces/inkscape"
   version="1.1"
   id="Capa_1"
   x="0px"
   y="0px"
   width="511.634px"
   height="511.634px"
   viewBox="0 0 511.634 511.634"
   style="enable-background:new 0 0 511.634 511.634;"
   xml:space="preserve"
   sodipodi:docname="6.svg"
   inkscape:version="0.92.1 15371"><metadata
     id="metadata3798"><rdf:RDF><cc:Work
         rdf:about=""><dc:format>image/svg+xml</dc:format><dc:type
           rdf:resource="http://purl.org/dc/dcmitype/StillImage" /><dc:title /></cc:Work></rdf:RDF></metadata><defs
     id="defs3796" /><sodipodi:namedview
     pagecolor="#ffffff"
     bordercolor="#666666"
     borderopacity="1"
     objecttolerance="10"
     gridtolerance="10"
     guidetolerance="10"
     inkscape:pageopacity="0"
     inkscape:pageshadow="2"
     inkscape:window-width="1851"
     inkscape:window-height="1099"
     id="namedview3794"
     showgrid="false"
     inkscape:zoom="0.48"
     inkscape:cx="-161.76062"
     inkscape:cy="234.10973"
     inkscape:window-x="418"
     inkscape:window-y="131"
     inkscape:window-maximized="0"
     inkscape:current-layer="Capa_1" /><g
     id="g3761"><path
       id="path3759"
       d="m 482.513,83.942 c -7.225,-7.233 -15.797,-10.85 -25.694,-10.85 h -36.541 v -27.41 c 0,-12.56 -4.477,-23.315 -13.422,-32.261 C 397.906,4.475 387.157,0 374.591,0 h -18.268 c -12.565,0 -23.318,4.475 -32.264,13.422 -8.949,8.945 -13.422,19.701 -13.422,32.261 v 27.41 h -109.63 v -27.41 c 0,-12.56 -4.475,-23.315 -13.422,-32.261 C 178.64,4.475 167.886,0 155.321,0 H 137.05 C 124.488,0 113.733,4.475 104.786,13.422 95.841,22.367 91.365,33.123 91.365,45.683 v 27.41 H 54.823 c -9.9,0 -18.464,3.617 -25.697,10.85 -7.233,7.232 -10.85,15.8 -10.85,25.697 v 365.453 c 0,9.89 3.617,18.456 10.85,25.693 7.232,7.231 15.796,10.849 25.697,10.849 h 401.989 c 9.897,0 18.47,-3.617 25.694,-10.849 7.234,-7.234 10.852,-15.804 10.852,-25.693 V 109.639 c -10e-4,-9.9 -3.615,-18.464 -10.845,-25.697 z M 347.187,45.686 c 0,-2.667 0.849,-4.858 2.56,-6.567 1.711,-1.711 3.901,-2.568 6.57,-2.568 h 18.268 c 2.67,0 4.853,0.854 6.57,2.568 1.712,1.712 2.567,3.903 2.567,6.567 v 82.224 c 0,2.666 -0.855,4.853 -2.567,6.567 -1.718,1.709 -3.9,2.568 -6.57,2.568 h -18.268 c -2.669,0 -4.859,-0.855 -6.57,-2.568 -1.711,-1.715 -2.56,-3.901 -2.56,-6.567 z m -219.272,0 c 0,-2.667 0.855,-4.858 2.568,-6.567 1.714,-1.711 3.901,-2.568 6.567,-2.568 h 18.271 c 2.667,0 4.858,0.854 6.567,2.568 1.711,1.712 2.57,3.903 2.57,6.567 v 82.224 c 0,2.666 -0.855,4.856 -2.57,6.567 -1.713,1.709 -3.9,2.568 -6.567,2.568 H 137.05 c -2.666,0 -4.856,-0.855 -6.567,-2.568 -1.709,-1.715 -2.568,-3.901 -2.568,-6.567 z M 456.812,475.088 H 54.823 v -292.36 h 401.989 z"
       inkscape:connector-curvature="0" /></g><g
     id="g3763" /><g
     id="g3765" /><g
     id="g3767" /><g
     id="g3769" /><g
     id="g3771" /><g
     id="g3773" /><g
     id="g3775" /><g
     id="g3777" /><g
     id="g3779" /><g
     id="g3781" /><g
     id="g3783" /><g
     id="g3785" /><g
     id="g3787" /><g
     id="g3789" /><g
     id="g3791" /><g
     aria-label="6"
     style="font-style:normal;font-weight:normal;font-size:40px;line-height:1.25;font-family:sans-serif;letter-spacing:0px;word-spacing:0px;fill:#000000;fill-opacity:1;stroke:none"
     id="text3810"><path
       id="path3983"
       style="font-style:normal;font-variant:normal;font-weight:normal;font-stretch:normal;font-size:253.33332825px;font-family:Ubuntu;-inkscape-font-specification:Ubuntu"
       d="m 190.96,332.87402 q 0,-25.58666 7.09333,-45.09333 7.09334,-19.76 20.01334,-33.18666 13.17333,-13.42667 31.66666,-20.26667 18.74667,-7.09333 42.05333,-7.34667 l 1.77334,19.76 q -14.94667,0.25334 -27.36,3.29334 -12.16,3.04 -21.78667,9.62666 -9.62666,6.58667 -16.21333,17.22667 -6.58667,10.38667 -9.88,25.84 6.58667,-3.04 14.69333,-5.06667 8.36,-2.02666 17.22667,-2.02666 14.94666,0 25.33333,4.56 10.38667,4.56 16.97333,12.15999 6.58667,7.34667 9.37334,17.22667 3.04,9.62667 3.04,20.26667 0,9.62666 -3.29334,19.76 -3.29333,10.13333 -10.13333,18.49333 -6.58667,8.36 -16.97333,13.68 -10.38667,5.32 -24.57333,5.32 -28.88,0 -44.08,-19.76 Q 190.96,367.58069 190.96,332.87402 Z m 56.74667,-17.98666 q -8.86667,0 -16.46667,1.77333 -7.6,1.52 -15.2,4.81333 -0.25333,2.78667 -0.50667,5.82667 0,2.78667 0,5.57333 0,11.14667 1.52,21.02667 1.52,9.88 5.32,17.48 4.05334,7.34667 10.64,11.90667 6.58667,4.30666 16.72,4.30666 8.36,0 14.18667,-3.54666 5.82666,-3.54667 9.62666,-9.12 3.8,-5.57334 5.32,-11.90667 1.77334,-6.58667 1.77334,-12.66667 0,-17.22666 -8.36,-26.34666 -8.10667,-9.12 -24.57333,-9.12 z"
       inkscape:connector-curvature="0" /></g></svg>